<?xml version="1.0" standalone="no"?>
<!DOCTYPE svg PUBLIC "-//W3C//DTD SVG 20010904//EN"
 "http://www.w3.org/TR/2001/REC-SVG-20010904/DTD/svg10.dtd">
<svg version="1.0" xmlns="http://www.w3.org/2000/svg"
 width="198.000000pt" height="198.000000pt" viewBox="0 0 198.000000 198.000000"
 preserveAspectRatio="xMidYMid meet">
<metadata>
Created by potrace 1.14, written by Peter Selinger 2001-2017
</metadata>
<g transform="translate(0.000000,198.000000) scale(0.100000,-0.100000)"
fill="#000000" stroke="none">
<path d="M1071 1304 c-50 -117 -46 -140 5 -28 48 105 55 124 45 124 -4 0 -26
-43 -50 -96z"/>
<path d="M964 1106 c-10 -26 4 -48 28 -44 17 2 23 10 23 28 0 18 -6 26 -23 28
-13 2 -25 -3 -28 -12z"/>
<path d="M1463 1072 c-27 -4 -29 -17 -8 -38 17 -17 21 -84 5 -84 -5 0 -10 -10
-10 -21 0 -17 4 -20 23 -15 12 3 34 6 50 6 17 0 27 5 27 15 0 8 -7 15 -15 15
-11 0 -15 12 -15 46 0 41 2 45 23 42 20 -3 22 -8 20 -60 -2 -54 0 -58 20 -58
38 0 67 12 67 26 0 8 -4 14 -9 14 -6 0 -13 21 -17 48 -3 26 -11 53 -16 59 -9
12 -86 14 -145 5z"/>
<path d="M513 1063 c-25 -3 -33 -9 -33 -24 0 -10 5 -19 10 -19 6 0 4 -13 -5
-30 l-16 -30 -24 27 c-13 16 -19 30 -14 31 5 2 9 13 9 24 0 18 -4 20 -31 14
-17 -3 -42 -6 -55 -6 -17 0 -24 -6 -24 -20 0 -11 6 -20 14 -20 21 0 96 -91 96
-116 0 -12 -7 -24 -15 -28 -8 -3 -15 -12 -15 -21 0 -16 34 -20 89 -9 31 7 44
34 16 34 -24 0 -18 57 13 111 15 27 33 49 40 49 6 0 12 9 12 20 0 20 -2 21
-67 13z"/>
<path d="M1313 1062 c-27 -4 -63 -47 -63 -74 0 -49 39 -87 90 -87 39 0 61 13
78 46 35 66 -21 127 -105 115z m57 -57 c18 -21 -2 -65 -29 -65 -25 0 -44 34
-36 60 8 24 47 27 65 5z"/>
<path d="M1097 1032 c-33 -37 -16 -72 39 -81 47 -8 58 -31 15 -31 -17 0 -31 5
-31 10 0 6 -7 10 -15 10 -10 0 -15 -10 -15 -29 0 -29 1 -29 45 -26 67 6 84 13
91 42 8 31 -12 53 -55 62 -36 7 -42 24 -11 29 11 2 20 -1 20 -7 0 -6 9 -11 20
-11 15 0 20 7 20 25 0 24 -3 25 -53 25 -40 0 -58 -5 -70 -18z"/>
<path d="M973 1033 c-25 -5 -32 -33 -8 -33 19 0 22 -86 3 -92 -6 -2 -9 -11 -6
-19 7 -19 98 -13 98 6 0 7 -5 15 -11 17 -6 2 -14 31 -18 63 -6 62 -11 67 -58
58z"/>
<path d="M886 1023 c-4 -4 -27 -6 -52 -4 -40 2 -45 0 -42 -16 2 -10 10 -17 16
-15 8 1 12 -15 12 -48 0 -27 -4 -50 -10 -50 -5 0 -10 -7 -10 -15 0 -10 10 -15
34 -15 63 0 81 17 51 46 -31 31 -7 91 31 77 12 -4 26 32 16 41 -8 8 -37 7 -46
-1z"/>
<path d="M624 996 c-28 -22 -7 -40 31 -26 20 7 31 7 41 -1 15 -13 9 -31 -9
-27 -25 5 -66 -13 -72 -32 -13 -42 34 -82 74 -61 11 6 38 11 60 11 30 0 41 4
41 15 0 8 -7 15 -15 15 -11 0 -15 11 -15 38 0 57 -22 82 -74 82 -23 0 -51 -6
-62 -14z m84 -93 c-4 -22 -48 -31 -48 -10 0 19 10 27 32 27 13 0 18 -6 16 -17z"/>
<path d="M860 768 c-13 -29 -36 -82 -52 -117 -16 -35 -26 -66 -23 -69 8 -8 11
-3 65 117 54 123 54 121 42 121 -5 0 -19 -24 -32 -52z"/>
</g>
</svg>
