<?xml version="1.0" standalone="no"?>
<!DOCTYPE svg PUBLIC "-//W3C//DTD SVG 20010904//EN"
 "http://www.w3.org/TR/2001/REC-SVG-20010904/DTD/svg10.dtd">
<svg version="1.0" xmlns="http://www.w3.org/2000/svg"
 width="198.000000pt" height="198.000000pt" viewBox="0 0 198.000000 198.000000"
 preserveAspectRatio="xMidYMid meet">
<metadata>
Created by potrace 1.14, written by Peter Selinger 2001-2017
</metadata>
<g transform="translate(0.000000,198.000000) scale(0.100000,-0.100000)"
fill="#000000" stroke="none">
<path d="M1072 1309 c-44 -95 -48 -109 -33 -109 6 0 41 73 88 188 3 6 1 12 -4
12 -5 0 -28 -41 -51 -91z"/>
<path d="M964 1105 c-9 -23 3 -45 24 -45 29 0 48 26 32 45 -7 8 -21 15 -32 15
-10 0 -21 -7 -24 -15z"/>
<path d="M1568 1084 c-3 -3 -31 -6 -62 -8 -31 -2 -59 -6 -63 -9 -3 -4 2 -22
11 -41 18 -38 21 -76 6 -76 -5 0 -10 -9 -10 -20 0 -22 15 -25 69 -14 35 7 39
18 15 41 -22 23 -15 78 11 78 18 0 20 -6 18 -57 l-2 -58 40 0 c28 0 42 5 46
17 4 9 1 19 -5 21 -7 2 -12 16 -12 32 0 40 -16 77 -38 89 -11 6 -22 8 -24 5z"/>
<path d="M484 1061 c-8 -8 -4 -39 6 -43 6 -2 4 -13 -6 -26 -15 -22 -17 -22
-35 -7 -13 13 -16 25 -12 46 6 32 0 34 -69 23 -28 -5 -38 -11 -38 -25 0 -11 6
-19 14 -19 18 0 83 -80 92 -113 5 -21 2 -27 -10 -27 -9 0 -16 -8 -16 -20 0
-16 7 -20 38 -20 20 0 47 3 60 6 25 7 31 34 7 34 -36 0 -3 110 46 152 10 9 19
24 19 33 0 13 -9 15 -46 13 -25 -2 -48 -5 -50 -7z"/>
<path d="M1304 1060 c-30 -12 -54 -49 -54 -83 0 -71 105 -105 155 -51 34 37
33 78 -4 115 -30 29 -58 35 -97 19z m66 -59 c12 -23 5 -47 -16 -55 -21 -8 -42
3 -49 25 -14 42 44 68 65 30z"/>
<path d="M1096 1034 c-31 -30 -9 -84 34 -84 25 0 50 -10 50 -21 0 -12 -47 -11
-55 1 -13 22 -35 10 -35 -19 0 -29 0 -29 55 -26 30 1 62 8 70 15 19 16 19 54
0 70 -11 9 -13 16 -5 24 5 5 10 20 10 33 0 21 -4 23 -54 23 -36 0 -60 -5 -70
-16z m82 -31 c2 -8 -5 -13 -17 -13 -21 0 -35 13 -24 24 10 10 36 3 41 -11z"/>
<path d="M968 1033 c-22 -5 -24 -29 -3 -37 17 -6 22 -86 5 -86 -5 0 -10 -10
-10 -21 0 -19 4 -21 31 -15 17 3 40 6 50 6 20 0 27 26 8 32 -6 2 -13 32 -16
66 -6 65 -11 69 -65 55z"/>
<path d="M818 1022 c-20 -2 -28 -9 -28 -23 0 -10 7 -19 15 -19 17 0 22 -75 5
-85 -5 -3 -10 -13 -10 -21 0 -10 13 -14 49 -14 56 0 69 10 45 35 -9 8 -17 30
-18 48 -1 27 3 33 24 36 26 3 40 17 40 39 0 11 -43 13 -122 4z"/>
<path d="M650 1007 c-52 -18 -47 -43 8 -39 47 4 58 -12 13 -21 -60 -12 -80
-64 -36 -93 17 -11 33 -14 52 -9 29 8 42 10 81 13 25 2 30 27 7 36 -9 3 -15
18 -15 40 0 62 -47 94 -110 73z m60 -102 c0 -21 -28 -31 -43 -16 -9 9 -8 14 3
21 22 14 40 12 40 -5z"/>
<path d="M831 705 c-28 -63 -51 -117 -51 -120 0 -16 22 -1 30 20 5 14 18 44
29 68 35 80 61 140 61 143 0 2 -4 4 -9 4 -5 0 -32 -52 -60 -115z"/>
</g>
</svg>
